<svg xmlns="http://www.w3.org/2000/svg" viewBox="0 0 128 128" role="img">
  <rect width="128" height="128" rx="28" fill="#f8f7f5"/>
  <path d="M26 34c0-5.52 4.48-10 10-10h56c5.52 0 10 4.48 10 10v60c0 5.52-4.48 10-10 10H36c-5.52 0-10-4.48-10-10V34z" fill="#ffffff"/>
  <path d="M45 25v78M82 25v78" stroke="#e8e4df" stroke-width="6" stroke-linecap="round"/>
  <path d="M68 18c-17.12 0-31 13.88-31 31 0 23.69 31 45 31 45s31-21.31 31-45c0-17.12-13.88-31-31-31z" fill="#e53935"/>
  <circle cx="68" cy="48" r="11" fill="#fff"/>
</svg>
